# AST/ASF file generated using VICON BodyLanguage
# -----------------------------------------------
:version 1.10
:name VICON
:units
  mass 1.0
  length 0.1
  angle deg
:documentation
   .ast/.asf automatically generated from VICON data using
   VICON BodyBuilder and BodyLanguage model FULLBODY5.MOD
:root
   order TX TY TZ RZ RY RX
   axis XYZ
   position 0 0 0  
   orientation 0 -0 0 
:bonedata
  begin
     id 1 
     name lhipjoint
     direction 0.961525 -0.229516 0.150972 
     length 0.502153 
     axis 0 -0 0  XYZ
  end
  begin
     id 2 
     name lfemur
     direction 0.173648 -0.984808 0  
     length 1.83052  
     axis 0 -0 10  XYZ
    dof rx ry rz
    limits (-180.0 180.0)
           (-180.0 180.0)
           (-180.0 180.0)
  end
  begin
     id 3 
     name ltibia
     direction 0.173629 -0.984811 0   
     length 1.50296   
     axis 0 -0 10   XYZ
    dof rx ry rz
    limits (-180.0 180.0)
           (-180.0 180.0)
           (-180.0 180.0)
  end
  begin
     id 4 
     name lfoot
     direction 7.59329e-012 -0.227408 0.9738   
     length 0.574743   
     axis -90 -1.73656e-015 10   XYZ
    dof rx ry rz
    limits (-180.0 180.0)
           (-180.0 180.0)
           (-180.0 180.0)
  end
  begin
     id 5 
     name ltoes
     direction 7.79885e-012 -4.41741e-011 1   
     length 0.28489   
     axis -90 -1.73656e-015 10   XYZ
    dof rx ry rz
    limits (-180.0 180.0)
           (-180.0 180.0)
           (-180.0 180.0)
  end
  begin
     id 6 
     name rhipjoint
     direction -0.970498 -0.201437 0.132502   
     length 0.572149  
     axis 0 -0 0  XYZ 
  end
  begin
     id 7 
     name rfemur
     direction -0.173648 -0.984808 0   
     length 1.71866   
     axis 0 -0 -10   XYZ
    dof rx ry rz
    limits (-180.0 180.0)
           (-180.0 180.0)
           (-180.0 180.0)
  end
  begin
     id 8 
     name rtibia
     direction -0.173624 -0.984812 0   
     length 1.42623   
     axis 0 -0 -10   XYZ
    dof rx ry rz
    limits (-180.0 180.0)
           (-180.0 180.0)
           (-180.0 180.0)
 end
 begin
     id 9 
     name rfoot
     direction -7.12931e-012 -0.404275 0.914637   
     length 0.524692  
     axis -90 1.73656e-015 -10   XYZ
    dof rx ry rz
    limits (-180.0 180.0)
           (-180.0 180.0)
           (-180.0 180.0)
  end
  begin
     id 10 
     name rtoes
     direction -7.79289e-012 -4.41454e-011 1   
     length 0.254983   
     axis -90 1.73656e-015 -10   XYZ
    dof rx ry rz
    limits (-180.0 180.0)
           (-180.0 180.0)
           (-180.0 180.0)
  end
  begin
     id 11 
     name lowerback
     direction -0.0214086 0.993738 0.109665   
     length 0.417614   
     axis 0 -0 0   XYZ
    dof rx ry rz
    limits (-180.0 180.0)
           (-180.0 180.0)
           (-180.0 180.0)
  end
  begin
     id 12 
     name upperback
     direction 8.15962e-005 0.99996 0.00893412   
     length 0.419234   
     axis 0 -0 0   XYZ
    dof rx ry rz
    limits (-180.0 180.0)
           (-180.0 180.0)
           (-180.0 180.0)
  end
  begin
     id 13 
     name thorax
     direction 0.00826031 0.999067 -0.0423848   
     length 0.424697   
     axis 0 -0 0   XYZ
    dof rx ry rz
    limits (-180.0 180.0)
           (-180.0 180.0)
           (-180.0 180.0)
  end
  begin
     id 14 
     name lowerneck
     direction -0.0196262 0.994272 -0.105058   
     length 0.355877   
     axis 0 -0 0   XYZ
    dof rx ry rz
    limits (-180.0 180.0)
           (-180.0 180.0)
           (-180.0 180.0)
  end
  begin
     id 15 
     name upperneck
     direction 0.000117372 0.999091 0.0426261   
     length 0.351054   
     axis 0 -0 0   XYZ
    dof rx ry rz
    limits (-180.0 180.0)
           (-180.0 180.0)
           (-180.0 180.0)
  end
  begin
     id 16
     name head
     direction 0.00157618 0.999651 0.0263619  
     length 0.374844  
     axis 0 -0 0   XYZ
    dof rx ry rz
    limits (-180.0 180.0)
           (-180.0 180.0)
           (-180.0 180.0)
  end
  begin
     id 17 
     name lshoulderjoint
     direction 0.981627 -0.190809 0  
     length 0.701763  
     axis 0 -0 -11   XYZ
    dof rx ry rz
    limits (-180.0 180.0)
           (-180.0 180.0)
           (-180.0 180.0)
  end
  begin
     id 18 
     name lhumerus
     direction 0.48481 -0.87462 -1.80676e-026   
     length 0.994704   
     axis -180 5.14477e-009 -151   XYZ
    dof rx ry rz
    limits (-180.0 180.0)
           (-180.0 180.0)
           (-180.0 180.0)
  end
  begin
     id 19
     name lradius
     direction 0.48481 -0.87462 -3.2569e-026   
     length 0.617638   
     axis -180 5.14477e-009 -151   XYZ
    dof rx ry rz
    limits (-180.0 180.0)
           (-180.0 180.0)
           (-180.0 180.0)
  end
  begin
     id 20
     name lwrist
     direction 0.48481 -0.87462 -6.73202e-026   
     length 0.308819   
     axis -180 5.14477e-009 -151   XYZ
    dof rx ry rz
    limits (-180.0 180.0)
           (-180.0 180.0)
           (-180.0 180.0)
  end
  begin
     id 21 
     name lhand
     direction 0.478366 -0.863761 -0.158376   
     length 0.291656   
     axis -180 5.14477e-009 -151   XYZ
    dof rx ry rz
    limits (-180.0 180.0)
           (-180.0 180.0)
           (-180.0 180.0)
  end
  begin
     id 22 
     name rshoulderjoint
     direction -0.981627 -0.190809 0   
     length 0.66654  
     axis 0 -0 11   XYZ 
    dof rx ry rz
    limits (-180.0 180.0)
           (-180.0 180.0)
           (-180.0 180.0)
  end
  begin
     id 23 
     name rhumerus
     direction -0.48481 -0.87462 1.77576e-026  
     length 1.15089   
     axis 180 5.14477e-009 151   XYZ
    dof rx ry rz
    limits (-180.0 180.0)
           (-180.0 180.0)
           (-180.0 180.0)
  end
  begin
     id 24 
     name rradius
     direction -0.48481 -0.87462 3.79421e-026   
     length 0.613887   
     axis 180 5.14477e-009 151   XYZ
    dof rx ry rz
    limits (-180.0 180.0)
           (-180.0 180.0)
           (-180.0 180.0)
  end
  begin
     id 25 
     name rwrist
     direction -0.48481 -0.87462 5.43623e-026   
     length 0.306944   
     axis 180 5.14477e-009 151   XYZ
    dof rx ry rz
    limits (-180.0 180.0)
           (-180.0 180.0)
           (-180.0 180.0)
  end
  begin
     id 26
     name rhand
     direction -0.479273 -0.864638 -0.150661   
     length 0.306429   
     axis 180 5.14477e-009 151   XYZ
    dof rx ry rz
    limits (-180.0 180.0)
           (-180.0 180.0)
           (-180.0 180.0)
  end
:hierarchy
  begin
    root lhipjoint rhipjoint lowerback 
    lhipjoint lfemur
    lfemur ltibia
    ltibia lfoot
    lfoot ltoes
    rhipjoint rfemur
    rfemur rtibia
    rtibia rfoot
    rfoot rtoes
    lowerback upperback
    upperback thorax
    thorax lowerneck lshoulderjoint rshoulderjoint
    lowerneck upperneck
    upperneck head
    lshoulderjoint lhumerus
    lhumerus lradius
    lradius lwrist
    lwrist lhand
    rshoulderjoint rhumerus
    rhumerus rradius
    rradius rwrist
    rwrist rhand
  end

:FULLY-SPECIFIED
:DEGREES
2341
root 2.25837 3.44672 -0.423139 -298.194 -81.0297 61.4125
lowerback -12.9742 -3.14921 0.772205
upperback -2.85143 -4.42471 0.839391
thorax 4.26726 -2.22765 -0.284981
lowerneck 13.1676 1.27367 -2.28817
upperneck -3.88719 1.34776 0.813172
head -3.64801 0.656138 0.58342
rshoulderjoint 1.36043 -3.58691 -31.7865
rhumerus -7.37009 -30.8355 -53.593
rradius 28.0562 3.37139e-013 2.18166e-014
rwrist 8.45234e-013 9.63721 -4.0326e-013
rhand 11.7762 -8.36926 29.1091
lshoulderjoint 2.56497 9.80079 25.7441
lhumerus 5.15952 1.71478 55.1097
lradius 19.211 -1.1609e-013 7.15625e-015
lwrist 5.25086e-013 -11.1076 1.83942e-013
lhand 25.1101 10.6113 -17.6359
rfemur -26.9441 -5.92954 16.6267
rtibia 15.2178 3.18055e-015 -7.95139e-016
rfoot 2.66983 17.8792 -4.64995
rtoes 6.91771e-014 4.60683e-014 -3.18055e-015
lfemur -7.53857 -8.08196 -15.8253
ltibia 54.7888 3.97569e-016 4.77083e-015
lfoot -9.81461 8.74248 7.28207
ltoes 7.63333e-014 -2.46493e-014 -3.18055e-015
2342
root 2.21897 3.44915 -0.427016 -298.276 -81.1441 61.7488
lowerback -12.8124 -3.01827 1.24412
upperback -2.95274 -4.31697 0.90692
thorax 4.04401 -2.17441 -0.446711
lowerneck 13.3313 1.22668 -2.23935
upperneck -3.82986 1.29206 0.876964
head -3.65905 0.623179 0.599724
rshoulderjoint 1.3319 -3.51621 -31.7614
rhumerus -7.32537 -30.3611 -53.6682
rradius 28.125 -5.97944e-013 -8.21975e-014
rwrist 1.33562e-012 9.64287 2.0002e-013
rhand 11.8148 -8.35999 29.0107
lshoulderjoint 2.54916 9.70023 25.8009
lhumerus 4.78094 3.15318 55.2601
lradius 17.9884 8.11041e-014 -2.00773e-014
lwrist 1.75762e-012 -10.7035 2.3791e-013
lhand 25.3794 10.3965 -16.7726
rfemur -26.2158 -6.18401 17.2134
rtibia 15.3644 -8.34896e-015 -1.98785e-014
rfoot 1.73771 17.9152 -4.42809
rtoes 6.08281e-014 -4.18939e-014 -1.1609e-013
lfemur -9.21397 -7.73431 -15.2994
ltibia 58.1658 -1.66979e-014 8.74653e-015
lfoot -7.33055 9.49969 7.85696
ltoes -4.67542e-013 -1.59028e-015 7.27552e-014
2343
root 2.18074 3.45194 -0.431072 -298.995 -81.1854 61.4427
lowerback -12.6861 -2.92846 1.62889
upperback -2.98679 -4.25054 0.991664
thorax 3.91896 -2.14079 -0.553828
lowerneck 13.3932 1.16677 -2.14014
upperneck -3.84449 1.22927 0.901041
head -3.67448 0.589057 0.594508
rshoulderjoint 1.30618 -3.4549 -31.7246
rhumerus -7.15537 -29.7582 -53.8214
rradius 28.2664 -6.67916e-013 -1.17979e-013
rwrist -5.20962e-013 9.60451 5.22575e-013
rhand 11.8548 -8.34614 28.9922
lshoulderjoint 2.55209 9.67896 25.848
lhumerus 4.60164 4.66565 55.3935
lradius 16.7486 1.90833e-013 -1.5704e-014
lwrist -1.06564e-013 -9.96041 -1.51774e-013
lhand 25.7132 9.79617 -15.6279
rfemur -25.4636 -6.98709 17.9376
rtibia 15.3541 -1.07344e-014 2.3059e-014
rfoot 1.02071 17.9083 -3.66335
rtoes -1.50878e-013 1.04809e-013 1.27222e-014
lfemur -10.9416 -7.57097 -14.8094
ltibia 61.3316 0 -1.19271e-014
lfoot -4.98289 9.35638 8.64975
ltoes 2.8943e-013 3.97569e-014 -4.37326e-014
2344
root 2.14396 3.45566 -0.434925 -300.452 -81.1508 60.4003
lowerback -12.4963 -2.87231 1.98985
upperback -3.02357 -4.22346 1.1049
thorax 3.75991 -2.12775 -0.620628
lowerneck 13.3419 1.09315 -2.11148
upperneck -3.7903 1.13893 0.928145
head -3.64359 0.54237 0.605108
rshoulderjoint 1.30855 -3.46663 -31.6949
rhumerus -6.99673 -29.0114 -53.9203
rradius 28.5233 4.96167e-013 -1.9133e-014
rwrist 2.58096e-013 9.64935 -5.54906e-013
rhand 11.8231 -8.39649 29.0283
lshoulderjoint 2.55331 9.72594 25.7868
lhumerus 4.49675 6.16891 55.4193
lradius 15.5308 -1.28812e-013 3.06128e-014
lwrist -4.83124e-014 -9.06999 1.28833e-013
lhand 25.9982 9.16209 -14.2116
rfemur -24.6317 -7.55731 18.5203
rtibia 15.1142 8.74653e-015 -7.95139e-015
rfoot 0.523292 17.9135 -3.24952
rtoes -2.00773e-014 -4.70623e-014 3.65764e-014
lfemur -12.6633 -7.51773 -14.3434
ltibia 64.24 6.36111e-015 5.56597e-015
lfoot -3.37332 7.4454 9.40249
ltoes -6.36111e-015 8.74653e-015 4.77083e-015
2345
root 2.10862 3.46062 -0.438733 -302.195 -81.0313 58.9788
lowerback -12.301 -2.83429 2.24431
upperback -3.08854 -4.20361 1.19052
thorax 3.57391 -2.12036 -0.656732
lowerneck 13.3493 1.00108 -2.09417
upperneck -3.77166 1.02244 0.975587
head -3.63674 0.482002 0.626392
rshoulderjoint 1.31242 -3.46715 -31.7481
rhumerus -6.88719 -28.2351 -54.0763
rradius 28.8516 -2.03555e-013 4.05521e-014
rwrist 1.31305e-012 9.64566 4.51663e-014
rhand 11.8006 -8.39113 29.1246
lshoulderjoint 2.54356 9.7037 25.7647
lhumerus 4.40335 8.08416 55.5254
lradius 14.4205 7.79236e-014 -4.09496e-014
lwrist 1.39397e-012 -8.01158 7.14648e-014
lhand 26.268 8.20999 -12.5157
rfemur -23.7602 -7.79234 18.8707
rtibia 14.6562 -1.19271e-014 -1.11319e-014
rfoot 0.256292 17.9721 -3.3424
rtoes 4.07509e-014 3.32964e-015 -1.01778e-013
lfemur -14.3992 -7.59157 -13.9751
ltibia 66.807 -1.27222e-014 -3.97569e-015
lfoot -1.92803 5.87867 10.017
ltoes -1.68569e-013 -2.38542e-015 3.18055e-015
2346
root 2.07458 3.46727 -0.442444 -304.156 -80.884 57.1991
lowerback -12.0837 -2.80443 2.34819
upperback -3.14717 -4.17118 1.23369
thorax 3.3905 -2.10738 -0.650331
lowerneck 13.4746 0.904307 -2.10481
upperneck -3.83703 0.895429 1.05627
head -3.68321 0.415468 0.664824
rshoulderjoint 1.31938 -3.47357 -31.8135
rhumerus -6.80998 -27.4406 -54.2354
rradius 29.2249 3.05333e-013 1.59028e-015
rwrist -2.42032e-013 9.74186 -2.45259e-013
rhand 11.7564 -8.49348 29.2743
lshoulderjoint 2.51553 9.6182 25.7319
lhumerus 4.30096 10.4106 55.5973
lradius 13.4694 -1.46306e-013 2.5842e-014
lwrist -3.52196e-013 -6.60142 8.64481e-014
lhand 26.5193 6.75904 -10.5447
rfemur -22.779 -8.09836 19.0691
rtibia 13.9181 -1.11319e-014 1.66979e-014
rfoot 0.193018 18.072 -3.45502
rtoes -4.77083e-014 4.17448e-014 -1.27222e-014
lfemur -16.1232 -7.74602 -13.7653
ltibia 68.9892 -3.57812e-015 -1.03368e-014
lfoot -0.356669 3.98783 10.7605
ltoes 1.30403e-013 1.82882e-014 5.24792e-014
2347
root 2.04169 3.47506 -0.446045 -306.113 -80.7037 55.4115
lowerback -11.8659 -2.7819 2.42882
upperback -3.16384 -4.14448 1.27747
thorax 3.25221 -2.09577 -0.632863
lowerneck 13.3807 0.775486 -2.06519
upperneck -3.81669 0.734921 1.07897
head -3.6545 0.334723 0.677021
rshoulderjoint 1.35235 -3.56715 -31.7782
rhumerus -6.6405 -26.4498 -54.2562
rradius 29.6483 4.13472e-013 1.51076e-014
rwrist 4.938e-013 9.77942 -4.67981e-013
rhand 11.6824 -8.61282 29.4206
lshoulderjoint 2.49337 9.54853 25.7086
lhumerus 4.23179 12.9708 55.744
lradius 12.7561 -1.68569e-013 1.43125e-014
lwrist 8.94256e-014 -5.21442 1.0779e-013
lhand 26.591 5.16167 -8.56236
rfemur -21.7277 -8.42514 19.26
rtibia 12.9442 3.65764e-014 3.18055e-015
rfoot 0.286261 18.311 -3.49347
rtoes 3.69739e-014 -6.2816e-014 1.82882e-013
lfemur -17.8657 -7.92829 -13.5521
ltibia 70.7997 2.46493e-014 1.43125e-014
lfoot 0.727042 1.95223 11.8837
ltoes 2.06736e-013 5.56597e-015 -1.51076e-014
